<svg width="27" height="16" viewBox="0 0 27 16" fill="none" xmlns="http://www.w3.org/2000/svg">
<path d="M5.072 12.08C4.08 12.08 3.312 11.9787 2.768 11.776C2.23467 11.5733 1.86133 11.2587 1.648 10.832C1.43467 10.3947 1.312 9.84533 1.28 9.184L0.944 0.287999H3.184L3.52 8.112C3.54133 8.60267 3.59467 8.97067 3.68 9.216C3.76533 9.46133 3.92533 9.62667 4.16 9.712C4.40533 9.79733 4.76267 9.84 5.232 9.84C5.63733 9.84 5.92533 9.94667 6.096 10.16C6.27733 10.3627 6.368 10.6187 6.368 10.928C6.368 11.2587 6.256 11.536 6.032 11.76C5.808 11.9733 5.488 12.08 5.072 12.08ZM5.09375 12.08L5.25375 9.84C5.89375 9.84 6.38442 9.808 6.72575 9.744C7.06708 9.68 7.30175 9.56267 7.42975 9.392C7.56842 9.21067 7.63775 8.95467 7.63775 8.624C7.63775 8.32533 7.59508 7.968 7.50975 7.552C7.43508 7.136 7.33375 6.704 7.20575 6.256C7.08842 5.808 6.96042 5.39733 6.82175 5.024L9.02975 4.416C9.16842 4.77867 9.30175 5.2 9.42975 5.68C9.55775 6.16 9.66442 6.656 9.74975 7.168C9.83508 7.66933 9.87775 8.15467 9.87775 8.624C9.87775 9.34933 9.76042 9.94133 9.52575 10.4C9.29108 10.848 8.96042 11.1947 8.53375 11.44C8.11775 11.6853 7.61642 11.856 7.02975 11.952C6.44308 12.0373 5.79775 12.08 5.09375 12.08ZM9.04575 15.792C8.73642 15.792 8.46975 15.68 8.24575 15.456C8.03242 15.2427 7.92575 14.9867 7.92575 14.688C7.92575 14.3787 8.03242 14.112 8.24575 13.888C8.46975 13.664 8.73642 13.552 9.04575 13.552C9.34442 13.552 9.60042 13.664 9.81375 13.888C10.0271 14.112 10.1338 14.3787 10.1338 14.688C10.1338 14.9867 10.0271 15.2427 9.81375 15.456C9.60042 15.68 9.34442 15.792 9.04575 15.792ZM6.27775 15.792C5.96842 15.792 5.70175 15.68 5.47775 15.456C5.26442 15.2427 5.15775 14.9867 5.15775 14.688C5.15775 14.3787 5.26442 14.112 5.47775 13.888C5.70175 13.664 5.96842 13.552 6.27775 13.552C6.57642 13.552 6.83242 13.664 7.04575 13.888C7.25908 14.112 7.36575 14.3787 7.36575 14.688C7.36575 14.9867 7.25908 15.2427 7.04575 15.456C6.83242 15.68 6.57642 15.792 6.27775 15.792ZM15.9158 12.08C14.9238 12.08 14.1558 11.9787 13.6118 11.776C13.0784 11.5733 12.7051 11.2587 12.4918 10.832C12.2784 10.3947 12.1558 9.84533 12.1238 9.184L11.7878 0.287999H14.0278L14.3638 8.112C14.3851 8.60267 14.4384 8.97067 14.5238 9.216C14.6091 9.46133 14.7691 9.62667 15.0038 9.712C15.2491 9.79733 15.6064 9.84 16.0758 9.84C16.4811 9.84 16.7691 9.94667 16.9398 10.16C17.1211 10.3627 17.2118 10.6187 17.2118 10.928C17.2118 11.2587 17.0998 11.536 16.8758 11.76C16.6518 11.9733 16.3318 12.08 15.9158 12.08ZM15.9375 12.08L16.0975 9.84C16.4815 9.84 16.8122 9.80267 17.0895 9.728C17.3668 9.65333 17.6015 9.504 17.7935 9.28C17.9855 9.04533 18.1455 8.704 18.2735 8.256C18.4122 7.808 18.5348 7.21067 18.6415 6.464L20.7375 6.816C20.7162 6.976 20.6842 7.16267 20.6415 7.376C20.6095 7.58933 20.5775 7.808 20.5455 8.032C20.5242 8.24533 20.5135 8.448 20.5135 8.64C20.5135 8.832 20.5508 9.00267 20.6255 9.152C20.7002 9.30133 20.8175 9.42933 20.9775 9.536C21.1482 9.632 21.3668 9.70667 21.6335 9.76C21.9108 9.81333 22.2468 9.84 22.6415 9.84C23.0468 9.84 23.3348 9.94667 23.5055 10.16C23.6762 10.3627 23.7615 10.6187 23.7615 10.928C23.7615 11.2587 23.6495 11.536 23.4255 11.76C23.2122 11.9733 22.8975 12.08 22.4815 12.08C22.0015 12.08 21.5642 12.0427 21.1695 11.968C20.7855 11.8933 20.4495 11.7707 20.1615 11.6C19.8842 11.4187 19.6548 11.184 19.4735 10.896C19.3028 10.5973 19.1962 10.2347 19.1535 9.808H19.9215C19.7295 10.32 19.4842 10.7307 19.1855 11.04C18.8975 11.3387 18.5722 11.5627 18.2095 11.712C17.8468 11.8613 17.4682 11.9573 17.0735 12C16.6895 12.0533 16.3108 12.08 15.9375 12.08ZM20.4015 15.792C20.0922 15.792 19.8255 15.68 19.6015 15.456C19.3882 15.2427 19.2815 14.9867 19.2815 14.688C19.2815 14.3787 19.3882 14.112 19.6015 13.888C19.8255 13.664 20.0922 13.552 20.4015 13.552C20.7002 13.552 20.9562 13.664 21.1695 13.888C21.3828 14.112 21.4895 14.3787 21.4895 14.688C21.4895 14.9867 21.3828 15.2427 21.1695 15.456C20.9562 15.68 20.7002 15.792 20.4015 15.792ZM17.6335 15.792C17.3242 15.792 17.0575 15.68 16.8335 15.456C16.6202 15.2427 16.5135 14.9867 16.5135 14.688C16.5135 14.3787 16.6202 14.112 16.8335 13.888C17.0575 13.664 17.3242 13.552 17.6335 13.552C17.9322 13.552 18.1882 13.664 18.4015 13.888C18.6148 14.112 18.7215 14.3787 18.7215 14.688C18.7215 14.9867 18.6148 15.2427 18.4015 15.456C18.1882 15.68 17.9322 15.792 17.6335 15.792ZM22.4844 12.08L22.6444 9.84C23.135 9.84 23.487 9.792 23.7004 9.696C23.9137 9.58933 24.0417 9.39733 24.0844 9.12C24.127 8.832 24.1377 8.416 24.1164 7.872L23.8284 0.287999H26.0844L26.4044 8.032C26.4257 8.65067 26.399 9.21067 26.3244 9.712C26.2604 10.2027 26.095 10.624 25.8284 10.976C25.5724 11.328 25.1724 11.6 24.6284 11.792C24.095 11.984 23.3804 12.08 22.4844 12.08Z" fill="white"/>
</svg>
